<?xml version="1.0" encoding="iso-8859-1"?>
<!-- Generator: Adobe Illustrator 18.1.1, SVG Export Plug-In . SVG Version: 6.00 Build 0)  -->
<svg version="1.1" id="Layer_1" xmlns="http://www.w3.org/2000/svg" xmlns:xlink="http://www.w3.org/1999/xlink" x="0px" y="0px"
	 viewBox="0 0 96 96" style="enable-background:new 0 0 96 96;" xml:space="preserve">
<g>
	<path style="fill:#FF931E;" d="M56.794,36.155c0.968,0,1.941,0,2.521,0C58.735,36.142,57.76,36.146,56.794,36.155z"/>
	<path style="fill:#FF931E;" d="M59.845,36.155c-0.019,0-0.221,0-0.53,0c0.327,0.007,0.53,0.02,0.53,0.04c0,0.105,0,5.469,0,5.882
		C59.845,42.078,59.955,36.155,59.845,36.155z"/>
	<polygon style="fill:#DBEAF7;" points="95.38,48 77.612,59.845 77.612,77.532 59.845,77.532 48,95.38 83.535,83.454 	"/>
	<polygon style="fill:#6D6D6D;" points="48,95.38 36.155,77.612 18.468,77.612 18.468,59.845 0.62,48 12.465,83.535 	"/>
	<polyline style="fill:#4DA8FF;" points="48,48 59.845,18.388 77.612,18.388 	"/>
	<polygon style="fill:#234361;" points="48,48 77.612,18.388 77.612,36.155 	"/>
	<polygon style="fill:#234361;" points="48,48 48,0.62 59.845,18.388 	"/>
	<polygon style="fill:#FFFFFF;" points="48,48 48,0.62 36.155,18.388 	"/>
	<polygon style="fill:#234361;" points="48,48 95.38,48 77.612,59.845 	"/>
	<polygon style="fill:#4DA8FF;" points="48,48 95.38,48 77.612,36.155 	"/>
	<polygon style="fill:#DBEAF7;" points="48,48 36.155,18.388 18.388,18.388 	"/>
	<polygon style="fill:#FFFFFF;" points="48.031,48.022 18.388,36.155 18.388,18.388 	"/>
	<polygon style="fill:#DBEAF7;" points="48,48 18.388,36.155 0.62,48 	"/>
	<polygon style="fill:#FFFFFF;" points="48,48 18.388,59.845 0.62,48 	"/>
	<polygon style="fill:#DBEAF7;" points="48,48 18.388,59.845 18.388,77.612 	"/>
	<polygon style="fill:#FFFFFF;" points="48,48 36.155,77.612 18.388,77.612 	"/>
	<polygon style="fill:#DBEAF7;" points="48,48 36.155,77.612 48,95.38 	"/>
	<polygon style="fill:#4DA8FF;" points="48,48 59.845,77.532 48,95.38 	"/>
	<polygon style="fill:#234361;" points="48,48 59.845,77.612 77.612,77.612 	"/>
	<polygon style="fill:#4DA8FF;" points="48,48 77.612,59.845 77.612,77.612 	"/>
	<g>
		<path d="M36.155,59.845c-0.085-1.974-0.145-3.948-0.199-5.922c-0.05-1.974-0.132-3.948-0.156-5.922l-0.204-11.845l-0.023-1.361
			l0.978,0.966l11.915,11.775l-0.928-0.002l11.914-11.695l0.977-0.959l-0.023,1.356L60.201,48.04
			c-0.024,1.967-0.106,3.935-0.156,5.902c-0.054,1.967-0.115,3.935-0.2,5.902c-0.085-1.967-0.145-3.935-0.2-5.902
			c-0.05-1.967-0.132-3.935-0.156-5.902l-0.204-11.805l0.953,0.397L48.464,48.467l-0.465,0.467l-0.464-0.469L35.76,36.55
			l0.954-0.395L36.51,48c-0.024,1.974-0.106,3.948-0.156,5.922C36.3,55.897,36.24,57.871,36.155,59.845z"/>
	</g>
</g>
</svg>
